<?xml version="1.0" encoding="utf-8"?>
<!-- Generator: Adobe Illustrator 24.1.3, SVG Export Plug-In . SVG Version: 6.00 Build 0)  -->
<svg version="1.1" xmlns="http://www.w3.org/2000/svg" xmlns:xlink="http://www.w3.org/1999/xlink" x="0px" y="0px"
	 viewBox="0 0 200 200" style="enable-background:new 0 0 200 200;" xml:space="preserve">
<style type="text/css">
	.st0{enable-background:new    ;}
	.st1{fill:#482066;}
	.st2{clip-path:url(#SVGID_2_);enable-background:new    ;}
	.st3{fill:#35174B;}
	.st4{clip-path:url(#SVGID_4_);enable-background:new    ;}
	.st5{fill:#000085;}
	.st6{clip-path:url(#SVGID_6_);enable-background:new    ;}
	.st7{clip-path:url(#SVGID_8_);enable-background:new    ;}
	.st8{clip-path:url(#SVGID_10_);enable-background:new    ;}
	.st9{fill:#411D5D;}
	.st10{fill:#3F1C5A;}
	.st11{clip-path:url(#SVGID_12_);enable-background:new    ;}
	.st12{fill:#0000A8;}
	.st13{fill:#0000A3;}
	.st14{fill:#00009E;}
	.st15{fill:#0000AB;}
	.st16{fill:#34174A;}
	.st17{fill:#472066;}
	.st18{clip-path:url(#SVGID_14_);enable-background:new    ;}
	.st19{clip-path:url(#SVGID_16_);enable-background:new    ;}
	.st20{clip-path:url(#SVGID_18_);enable-background:new    ;}
	.st21{fill:#431E60;}
	.st22{clip-path:url(#SVGID_20_);enable-background:new    ;}
	.st23{fill:#3D1B57;}
	.st24{fill:#3B1A54;}
	.st25{fill:#391951;}
	.st26{fill:#37184E;}
	.st27{clip-path:url(#SVGID_22_);enable-background:new    ;}
	.st28{fill:#000099;}
	.st29{fill:#000094;}
	.st30{fill:#00008F;}
	.st31{fill:#00008A;}
	.st32{clip-path:url(#SVGID_24_);enable-background:new    ;}
	.st33{clip-path:url(#SVGID_26_);enable-background:new    ;}
	.st34{fill:#0000B4;}
	.st35{clip-path:url(#SVGID_28_);enable-background:new    ;}
	.st36{fill:#59277F;}
	.st37{fill:#000082;}
	.st38{clip-path:url(#SVGID_30_);enable-background:new    ;}
	.st39{fill:#0000DF;}
	.st40{clip-path:url(#SVGID_32_);enable-background:new    ;}
	.st41{fill:#482067;}
	.st42{clip-path:url(#SVGID_34_);enable-background:new    ;}
	.st43{clip-path:url(#SVGID_36_);enable-background:new    ;}
	.st44{clip-path:url(#SVGID_38_);enable-background:new    ;}
	.st45{clip-path:url(#SVGID_40_);enable-background:new    ;}
	.st46{clip-path:url(#SVGID_42_);enable-background:new    ;}
	.st47{clip-path:url(#SVGID_44_);enable-background:new    ;}
	.st48{clip-path:url(#SVGID_46_);enable-background:new    ;}
	.st49{clip-path:url(#SVGID_48_);enable-background:new    ;}
	.st50{clip-path:url(#SVGID_50_);enable-background:new    ;}
	.st51{fill:#331749;}
	.st52{fill:#401C5B;}
	.st53{fill:#381950;}
	.st54{fill:#00008C;}
	.st55{fill:#38194F;}
	.st56{fill:#3F1C59;}
	.st57{clip-path:url(#SVGID_52_);enable-background:new    ;}
	.st58{clip-path:url(#SVGID_54_);enable-background:new    ;}
	.st59{clip-path:url(#SVGID_56_);enable-background:new    ;}
	.st60{clip-path:url(#SVGID_58_);enable-background:new    ;}
	.st61{clip-path:url(#SVGID_60_);enable-background:new    ;}
	.st62{clip-path:url(#SVGID_62_);enable-background:new    ;}
	.st63{clip-path:url(#SVGID_64_);enable-background:new    ;}
	.st64{fill:#461F63;}
	.st65{clip-path:url(#SVGID_66_);enable-background:new    ;}
	.st66{clip-path:url(#SVGID_68_);enable-background:new    ;}
	.st67{clip-path:url(#SVGID_70_);enable-background:new    ;}
	.st68{clip-path:url(#SVGID_72_);enable-background:new    ;}
	.st69{clip-path:url(#SVGID_74_);enable-background:new    ;}
	.st70{clip-path:url(#SVGID_76_);enable-background:new    ;}
	.st71{clip-path:url(#SVGID_78_);enable-background:new    ;}
	.st72{clip-path:url(#SVGID_80_);enable-background:new    ;}
	.st73{clip-path:url(#SVGID_82_);enable-background:new    ;}
	.st74{clip-path:url(#SVGID_84_);enable-background:new    ;}
	.st75{fill:#B3B3B3;}
	.st76{fill:#662D91;stroke:#000000;stroke-miterlimit:10;}
	.st77{stroke:#000000;stroke-miterlimit:10;}
	.st78{fill:#FFFFFF;stroke:#000000;stroke-miterlimit:10;}
	.st79{fill:#FF0000;stroke:#FF0000;stroke-miterlimit:10;}
	.st80{fill:#FFFF00;}
	.st81{fill:#FFFFFF;stroke:#808080;stroke-width:0.25;stroke-miterlimit:10;}
</style>
<g id="Layer_1">
	<g>
		<g>
			<g class="st0">
				<g>
					<polygon class="st1" points="65.22,88.14 53.83,81.94 60.97,80.94 72.37,87.14 					"/>
				</g>
				<g class="st0">
					<defs>
						<path id="SVGID_1_" class="st0" d="M50.64,54.57l11.4,6.2c2.94,1.6,4.95,5,6.09,10.32c1.73,7.78,3.06,13.56,4.24,16.05
							l-11.4-6.2c-1.18-2.5-2.51-8.27-4.24-16.05C55.59,59.57,53.58,56.17,50.64,54.57z"/>
					</defs>
					<clipPath id="SVGID_2_">
						<use xlink:href="#SVGID_1_"  style="overflow:visible;"/>
					</clipPath>
					<g class="st2">
						<path class="st3" d="M72.37,87.14l-11.4-6.2c-1.18-2.5-2.51-8.27-4.24-16.05c-1.15-5.32-3.15-8.72-6.09-10.32l11.4,6.2
							c2.94,1.6,4.95,5,6.09,10.32C69.86,78.87,71.19,84.64,72.37,87.14"/>
					</g>
				</g>
				<g class="st0">
					<defs>
						<path id="SVGID_3_" class="st0" d="M50.12,67.91c-0.3-1.46-0.64-2.76-1.04-3.9c3.8,2.07,7.6,4.13,11.4,6.2
							c0.4,1.14,0.74,2.43,1.04,3.9c1.77,8.28,2.88,12.51,3.71,14.03l-11.4-6.2C53.01,80.42,51.89,76.19,50.12,67.91z"/>
					</defs>
					<clipPath id="SVGID_4_">
						<use xlink:href="#SVGID_3_"  style="overflow:visible;"/>
					</clipPath>
					<g class="st4">
						<path class="st5" d="M65.22,88.14l-11.4-6.2c-0.82-1.53-1.94-5.75-3.71-14.03c-1.04-5.14-2.64-8.2-5.29-9.64l11.4,6.2
							c2.65,1.44,4.24,4.5,5.29,9.64C63.29,82.39,64.4,86.62,65.22,88.14"/>
					</g>
				</g>
				<g class="st0">
					<defs>
						<path id="SVGID_5_" class="st0" d="M49.06,63.93c3.8,2.07,7.6,4.13,11.4,6.2c0.01,0.03,0.02,0.05,0.03,0.08
							c-3.8-2.07-7.6-4.13-11.4-6.2C49.08,63.99,49.07,63.96,49.06,63.93z"/>
					</defs>
					<clipPath id="SVGID_6_">
						<use xlink:href="#SVGID_5_"  style="overflow:visible;"/>
					</clipPath>
					<g class="st6">
						<path class="st5" d="M65.22,88.14l-11.4-6.2c-0.82-1.53-1.94-5.75-3.71-14.03c-1.04-5.14-2.64-8.2-5.29-9.64l11.4,6.2
							c2.65,1.44,4.24,4.5,5.29,9.64C63.29,82.39,64.4,86.62,65.22,88.14"/>
					</g>
				</g>
				<g class="st0">
					<defs>
						<path id="SVGID_7_" class="st0" d="M47.6,60.88c3.8,2.07,7.6,4.13,11.4,6.2c0.56,0.85,1.04,1.86,1.46,3.05
							c-3.8-2.07-7.6-4.13-11.4-6.2C48.64,62.75,48.15,61.73,47.6,60.88z"/>
					</defs>
					<clipPath id="SVGID_8_">
						<use xlink:href="#SVGID_7_"  style="overflow:visible;"/>
					</clipPath>
					<g class="st7">
						<path class="st5" d="M65.22,88.14l-11.4-6.2c-0.82-1.53-1.94-5.75-3.71-14.03c-1.04-5.14-2.64-8.2-5.29-9.64l11.4,6.2
							c2.65,1.44,4.24,4.5,5.29,9.64C63.29,82.39,64.4,86.62,65.22,88.14"/>
					</g>
				</g>
				<g class="st0">
					<defs>
						<path id="SVGID_9_" class="st0" d="M50.89,54.13l11.4,6.2c-0.63-0.34-1.29-0.6-2-0.79l-11.4-6.2
							C49.59,53.52,50.26,53.79,50.89,54.13z"/>
					</defs>
					<clipPath id="SVGID_10_">
						<use xlink:href="#SVGID_9_"  style="overflow:visible;"/>
					</clipPath>
					<g class="st8">
						<path class="st9" d="M60.28,59.54l-11.4-6.2c0.59,0.15,1.16,0.36,1.69,0.63l11.4,6.2C61.44,59.9,60.87,59.69,60.28,59.54"/>
						<path class="st10" d="M61.97,60.16l-11.4-6.2c0.11,0.05,0.21,0.11,0.32,0.16l11.4,6.2C62.18,60.27,62.08,60.21,61.97,60.16"/>
					</g>
				</g>
				<g class="st0">
					<defs>
						<path id="SVGID_11_" class="st0" d="M48.5,53.75c0.76,0.18,1.48,0.45,2.14,0.81l11.4,6.2c-0.67-0.36-1.38-0.63-2.14-0.81
							C56.48,58.09,51.92,55.61,48.5,53.75z"/>
					</defs>
					<clipPath id="SVGID_12_">
						<use xlink:href="#SVGID_11_"  style="overflow:visible;"/>
					</clipPath>
					<g class="st11">
						<path class="st12" d="M59.9,59.95l-11.4-6.2c0.07,0.02,0.13,0.03,0.2,0.05L60.1,60C60.03,59.99,59.96,59.97,59.9,59.95"/>
						<path class="st13" d="M60.1,60l-11.4-6.2c0.57,0.15,1.12,0.35,1.64,0.6l11.4,6.2C61.22,60.35,60.67,60.15,60.1,60"/>
						<path class="st14" d="M61.74,60.61l-11.4-6.2c0.1,0.05,0.2,0.1,0.3,0.16l11.4,6.2C61.94,60.71,61.84,60.66,61.74,60.61"/>
					</g>
				</g>
				<g>
					<polygon class="st15" points="59.74,59.92 48.35,53.72 48.5,53.75 59.9,59.95 					"/>
				</g>
				<g>
					<polygon class="st16" points="59.74,59.92 48.35,53.72 48.35,53.1 59.74,59.3 					"/>
				</g>
				<g>
					<polygon class="st17" points="59.74,59.3 48.35,53.1 48.5,53.03 59.9,59.23 					"/>
				</g>
				<g class="st0">
					<defs>
						<path id="SVGID_13_" class="st0" d="M47.6,60.88c-0.77-1.17-1.67-2.03-2.76-2.62l11.4,6.2c1.09,0.59,1.99,1.45,2.76,2.62
							c-2.3-1.25-4.61-2.51-6.91-3.76c-0.75-0.41-1.49-0.81-2.24-1.22c-0.18-0.1-0.41-0.22-0.59-0.32c-0.09-0.05-0.2-0.11-0.29-0.16
							c-0.09-0.05-0.2-0.11-0.29-0.16c-0.08-0.05-0.2-0.11-0.28-0.15c-0.16-0.09-0.38-0.21-0.54-0.29
							C47.78,60.98,47.66,60.94,47.6,60.88z"/>
					</defs>
					<clipPath id="SVGID_14_">
						<use xlink:href="#SVGID_13_"  style="overflow:visible;"/>
					</clipPath>
					<g class="st18">
						<path class="st5" d="M65.22,88.14l-11.4-6.2c-0.82-1.53-1.94-5.75-3.71-14.03c-1.04-5.14-2.64-8.2-5.29-9.64l11.4,6.2
							c2.65,1.44,4.24,4.5,5.29,9.64C63.29,82.39,64.4,86.62,65.22,88.14"/>
					</g>
				</g>
				<g class="st0">
					<defs>
						<path id="SVGID_15_" class="st0" d="M44.62,58.69l11.4,6.2c2.54,1.38,4.04,4.34,5.07,9.38c1.83,8.54,2.96,12.81,3.88,14.39
							l-11.4-6.2c-0.92-1.58-2.06-5.85-3.88-14.39C48.66,63.03,47.16,60.07,44.62,58.69z"/>
					</defs>
					<clipPath id="SVGID_16_">
						<use xlink:href="#SVGID_15_"  style="overflow:visible;"/>
					</clipPath>
					<g class="st19">
						<path class="st3" d="M64.97,88.66l-11.4-6.2c-0.92-1.58-2.06-5.85-3.88-14.39c-1.03-5.04-2.53-8-5.07-9.38l11.4,6.2
							c2.54,1.38,4.04,4.34,5.07,9.38C62.91,82.82,64.05,87.08,64.97,88.66"/>
					</g>
				</g>
				<g>
					<polygon class="st1" points="35.69,92.29 24.29,86.1 31.23,85.12 42.63,91.32 					"/>
				</g>
				<g class="st0">
					<defs>
						<path id="SVGID_17_" class="st0" d="M44.84,58.26l11.4,6.2c-1.66-0.91-3.75-1.17-6.37-0.91l-11.4-6.2
							C41.09,57.09,43.17,57.36,44.84,58.26z"/>
					</defs>
					<clipPath id="SVGID_18_">
						<use xlink:href="#SVGID_17_"  style="overflow:visible;"/>
					</clipPath>
					<g class="st20">
						<path class="st21" d="M49.86,63.55l-11.4-6.2c1.77-0.17,3.29-0.11,4.61,0.23l11.4,6.2C53.16,63.44,51.63,63.38,49.86,63.55"/>
						<path class="st9" d="M54.47,63.78l-11.4-6.2c0.53,0.14,1.03,0.32,1.49,0.55l11.4,6.2C55.5,64.1,55,63.92,54.47,63.78"/>
						<path class="st10" d="M55.96,64.33l-11.4-6.2c0.09,0.04,0.18,0.09,0.27,0.14l11.4,6.2C56.14,64.42,56.05,64.37,55.96,64.33"/>
					</g>
				</g>
				<g class="st0">
					<defs>
						<path id="SVGID_19_" class="st0" d="M52.8,23.74l11.4,6.2c0.7,0.38,1.35,0.82,1.96,1.33c2.85,2.32,4.41,6.2,4.4,10.93
							c-0.01,7.3-4,13.67-10.66,17.03l-11.4-6.2c6.66-3.37,10.65-9.73,10.66-17.03c0.01-4.73-1.55-8.61-4.4-10.93
							C54.15,24.56,53.5,24.12,52.8,23.74z"/>
					</defs>
					<clipPath id="SVGID_20_">
						<use xlink:href="#SVGID_19_"  style="overflow:visible;"/>
					</clipPath>
					<g class="st22">
						<path class="st9" d="M59.9,59.23l-11.4-6.2c0.86-0.44,1.68-0.92,2.45-1.45l11.4,6.2C61.58,58.31,60.76,58.79,59.9,59.23"/>
						<path class="st10" d="M62.35,57.77l-11.4-6.2c0.71-0.49,1.37-1.01,1.99-1.57l11.4,6.2C63.72,56.76,63.05,57.29,62.35,57.77"/>
						<path class="st23" d="M64.34,56.2L52.95,50c0.55-0.49,1.06-1.01,1.54-1.56l11.4,6.2C65.4,55.19,64.89,55.71,64.34,56.2"/>
						<path class="st24" d="M65.89,54.64l-11.4-6.2c0.46-0.53,0.9-1.07,1.3-1.64l11.4,6.2C66.78,53.57,66.35,54.12,65.89,54.64"/>
						<path class="st25" d="M67.18,53l-11.4-6.2c0.42-0.6,0.8-1.22,1.15-1.86l11.4,6.2C67.98,51.78,67.6,52.4,67.18,53"/>
						<path class="st26" d="M68.33,51.14l-11.4-6.2c0.41-0.77,0.77-1.56,1.07-2.38l11.4,6.2C69.1,49.57,68.74,50.37,68.33,51.14"/>
						<path class="st3" d="M69.4,48.75L58,42.55c0.75-2.05,1.15-4.26,1.15-6.55c0.01-4.73-1.55-8.61-4.4-10.93
							c-0.6-0.51-1.25-0.95-1.95-1.33l11.4,6.2c0.7,0.38,1.35,0.82,1.95,1.33c2.85,2.32,4.41,6.2,4.4,10.93
							C70.55,44.5,70.15,46.7,69.4,48.75"/>
					</g>
				</g>
				<g class="st0">
					<defs>
						<path id="SVGID_21_" class="st0" d="M39.07,51.7c7.98-1.12,13.14-6.54,13.15-13.81c3.8,2.07,7.6,4.13,11.4,6.2
							c-0.01,7.27-5.17,12.69-13.15,13.81C47.05,56.04,42.49,53.56,39.07,51.7z"/>
					</defs>
					<clipPath id="SVGID_22_">
						<use xlink:href="#SVGID_21_"  style="overflow:visible;"/>
					</clipPath>
					<g class="st27">
						<path class="st12" d="M50.47,57.9l-11.4-6.2c1.92-0.27,3.68-0.79,5.24-1.52l11.4,6.2C54.15,57.11,52.39,57.63,50.47,57.9"/>
						<path class="st13" d="M55.71,56.38l-11.4-6.2c0.77-0.36,1.5-0.78,2.17-1.25l11.4,6.2C57.21,55.6,56.48,56.01,55.71,56.38"/>
						<path class="st14" d="M57.88,55.13l-11.4-6.2c0.5-0.34,0.97-0.72,1.41-1.11l11.4,6.2C58.85,54.41,58.38,54.79,57.88,55.13"/>
						<path class="st28" d="M59.29,54.02l-11.4-6.2c0.38-0.34,0.74-0.7,1.07-1.08l11.4,6.2C60.03,53.32,59.67,53.68,59.29,54.02"/>
						<path class="st29" d="M60.36,52.94l-11.4-6.2c0.32-0.36,0.62-0.74,0.89-1.13l11.4,6.2C60.98,52.2,60.68,52.58,60.36,52.94"/>
						<path class="st30" d="M61.25,51.81l-11.4-6.2c0.29-0.41,0.56-0.84,0.8-1.29l11.4,6.2C61.81,50.96,61.54,51.39,61.25,51.81"/>
						<path class="st31" d="M62.05,50.52l-11.4-6.2c0.29-0.53,0.53-1.09,0.74-1.66l11.4,6.2C62.58,49.43,62.33,49.98,62.05,50.52"/>
						<path class="st5" d="M62.79,48.85l-11.4-6.2c0.54-1.47,0.82-3.07,0.82-4.77c0.01-4.25-1.51-7.22-4.41-8.8l11.4,6.2
							c2.89,1.57,4.41,4.54,4.41,8.8C63.61,45.79,63.33,47.39,62.79,48.85"/>
					</g>
				</g>
				<g class="st0">
					<defs>
						<path id="SVGID_23_" class="st0" d="M52.22,37.89c0.01-4.25-1.51-7.22-4.41-8.8l11.4,6.2c2.89,1.57,4.41,4.54,4.41,8.8
							C59.82,42.02,56.02,39.96,52.22,37.89z"/>
					</defs>
					<clipPath id="SVGID_24_">
						<use xlink:href="#SVGID_23_"  style="overflow:visible;"/>
					</clipPath>
					<g class="st32">
						<path class="st5" d="M62.79,48.85l-11.4-6.2c0.54-1.47,0.82-3.07,0.82-4.77c0.01-4.25-1.51-7.22-4.41-8.8l11.4,6.2
							c2.89,1.57,4.41,4.54,4.41,8.8C63.61,45.79,63.33,47.39,62.79,48.85"/>
					</g>
				</g>
				<g class="st0">
					<defs>
						<path id="SVGID_25_" class="st0" d="M47.54,29.54l11.4,6.2c2.78,1.51,4.23,4.35,4.23,8.42c-0.01,6.98-5,12.19-12.7,13.27
							l-11.4-6.2c7.71-1.08,12.69-6.3,12.7-13.27C51.78,33.89,50.32,31.05,47.54,29.54z"/>
					</defs>
					<clipPath id="SVGID_26_">
						<use xlink:href="#SVGID_25_"  style="overflow:visible;"/>
					</clipPath>
					<g class="st33">
						<path class="st21" d="M50.47,57.42l-11.4-6.2c1.86-0.26,3.57-0.77,5.08-1.48l11.4,6.2C54.04,56.66,52.33,57.16,50.47,57.42"/>
						<path class="st9" d="M55.55,55.95l-11.4-6.2c0.75-0.35,1.45-0.75,2.1-1.2l11.4,6.2C57,55.19,56.3,55.59,55.55,55.95"/>
						<path class="st10" d="M57.65,54.74l-11.4-6.2c0.48-0.33,0.94-0.69,1.36-1.07l11.4,6.2C58.59,54.05,58.13,54.41,57.65,54.74"/>
						<path class="st23" d="M59.01,53.67l-11.4-6.2c0.37-0.33,0.71-0.68,1.03-1.04l11.4,6.2C59.72,52.99,59.38,53.34,59.01,53.67"/>
						<path class="st24" d="M60.04,52.63l-11.4-6.2c0.31-0.35,0.6-0.71,0.86-1.09l11.4,6.2C60.64,51.92,60.35,52.28,60.04,52.63"/>
						<path class="st25" d="M60.9,51.54l-11.4-6.2c0.28-0.4,0.53-0.81,0.76-1.24l11.4,6.2C61.44,50.73,61.18,51.14,60.9,51.54"/>
						<path class="st26" d="M61.67,50.3l-11.4-6.2c0.27-0.51,0.51-1.04,0.71-1.59l11.4,6.2C62.18,49.26,61.94,49.79,61.67,50.3"/>
						<path class="st3" d="M62.38,48.71l-11.4-6.2c0.51-1.4,0.78-2.93,0.79-4.55c0.01-4.06-1.45-6.91-4.23-8.42l11.4,6.2
							c2.78,1.51,4.23,4.35,4.23,8.42C63.17,45.78,62.89,47.3,62.38,48.71"/>
					</g>
				</g>
				<g>
					<polygon class="st1" points="42.68,64.56 31.28,58.36 38.47,57.35 49.86,63.55 					"/>
				</g>
				<g>
					<polygon class="st16" points="42.63,91.32 31.23,85.12 31.28,58.36 42.68,64.56 					"/>
				</g>
				<g>
					<polygon class="st34" points="42.69,58.99 31.29,52.79 39.07,51.7 50.47,57.9 					"/>
				</g>
				<g>
					<polygon class="st1" points="43.14,58.45 31.74,52.25 39.07,51.22 50.47,57.42 					"/>
				</g>
				<g class="st0">
					<defs>
						<path id="SVGID_27_" class="st0" d="M47.81,29.09l11.4,6.2c-2.21-1.2-5.22-1.59-8.96-1.11c-3.65,0.51-6.19,1.25-7.36,1.78
							l-11.4-6.2c1.17-0.53,3.71-1.26,7.36-1.78C42.6,27.51,45.6,27.89,47.81,29.09z"/>
					</defs>
					<clipPath id="SVGID_28_">
						<use xlink:href="#SVGID_27_"  style="overflow:visible;"/>
					</clipPath>
					<g class="st35">
						<path class="st21" d="M42.89,35.96l-11.4-6.2c1.17-0.53,3.71-1.26,7.36-1.78c2.6-0.33,4.84-0.25,6.71,0.24l11.4,6.2
							c-1.87-0.48-4.11-0.57-6.71-0.24C46.6,34.7,44.06,35.44,42.89,35.96"/>
						<path class="st9" d="M56.96,34.42l-11.4-6.2c0.69,0.18,1.33,0.41,1.92,0.7l11.4,6.2C58.29,34.83,57.65,34.6,56.96,34.42"/>
						<path class="st10" d="M58.88,35.12l-11.4-6.2c0.11,0.06,0.22,0.11,0.33,0.17l11.4,6.2C59.1,35.23,58.99,35.18,58.88,35.12"/>
					</g>
				</g>
				<g>
					<polygon class="st1" points="42.73,36.04 31.33,29.84 31.49,29.76 42.89,35.96 					"/>
				</g>
				<g>
					<path class="st36" d="M63.62,44.09c-0.01,7.27-5.17,12.69-13.15,13.81l-7.78,1.09l0.04-22.95l0.16-0.07
						c1.17-0.53,3.71-1.26,7.36-1.78C58.89,33.08,63.63,36.59,63.62,44.09z M50.47,57.42c7.71-1.08,12.69-6.3,12.7-13.27
						c0.01-7.19-4.57-10.56-12.92-9.48c-3.44,0.48-5.87,1.16-7.07,1.67l-0.04,22.12L50.47,57.42"/>
				</g>
				<g>
					<polygon class="st16" points="42.69,58.99 31.29,52.79 31.33,29.84 42.73,36.04 					"/>
				</g>
				<g>
					<polygon class="st37" points="35.69,92.29 24.29,86.1 24.41,25.6 35.8,31.8 					"/>
				</g>
				<g class="st0">
					<defs>
						<path id="SVGID_29_" class="st0" d="M52.8,23.74l11.4,6.2c-3.38-1.84-7.97-2.25-14.44-1.34c-5.14,0.72-10.34,1.91-13.96,3.2
							l-11.4-6.2c3.61-1.29,8.81-2.47,13.96-3.2C44.84,21.49,49.42,21.9,52.8,23.74z"/>
					</defs>
					<clipPath id="SVGID_30_">
						<use xlink:href="#SVGID_29_"  style="overflow:visible;"/>
					</clipPath>
					<g class="st38">
						<path class="st12" d="M35.8,31.8l-11.4-6.2c3.61-1.29,8.81-2.47,13.96-3.2c4.7-0.66,8.4-0.63,11.37,0.14l11.4,6.2
							c-2.97-0.77-6.67-0.8-11.37-0.14C44.62,29.32,39.42,30.51,35.8,31.8"/>
						<path class="st13" d="M61.13,28.75l-11.4-6.2c0.94,0.25,1.81,0.56,2.62,0.96l11.4,6.2C62.95,29.31,62.08,28.99,61.13,28.75"/>
						<path class="st14" d="M63.75,29.71l-11.4-6.2c0.15,0.07,0.3,0.15,0.45,0.23l11.4,6.2C64.05,29.86,63.9,29.78,63.75,29.71"/>
					</g>
				</g>
				<g>
					<path class="st39" d="M68.13,71.09c1.73,7.78,3.06,13.56,4.24,16.05l-7.15,1c-0.82-1.53-1.94-5.75-3.71-14.03
						c-1.7-8.37-4.86-11.23-11.66-10.56l-7.19,1.01l-0.05,26.76l-6.94,0.97l0.11-60.5c3.61-1.29,8.81-2.47,13.96-3.2
						c7.82-1.1,12.88-0.28,16.4,2.67c2.85,2.32,4.41,6.2,4.4,10.93c-0.01,7.3-4,13.67-10.66,17.03l-0.15,0.07l0,0.62l0.15,0.03
						C64.03,60.92,66.73,64.56,68.13,71.09z M50.47,57.9c7.98-1.12,13.14-6.54,13.15-13.81c0.01-7.5-4.73-11.01-13.36-9.9
						c-3.65,0.51-6.19,1.25-7.36,1.78l-0.16,0.07l-0.04,22.95L50.47,57.9"/>
				</g>
				<g class="st0">
					<defs>
						<path id="SVGID_31_" class="st0" d="M53.03,23.3l11.4,6.2c-3.45-1.88-8.11-2.3-14.67-1.38c-5.25,0.74-10.57,1.97-14.23,3.29
							l-11.4-6.2c3.65-1.32,8.97-2.55,14.23-3.29C44.92,21,49.58,21.42,53.03,23.3z"/>
					</defs>
					<clipPath id="SVGID_32_">
						<use xlink:href="#SVGID_31_"  style="overflow:visible;"/>
					</clipPath>
					<g class="st40">
						<path class="st21" d="M35.53,31.41l-11.4-6.2c3.65-1.32,8.97-2.55,14.23-3.29c4.75-0.67,8.5-0.63,11.52,0.15l11.4,6.2
							c-3.02-0.78-6.77-0.82-11.52-0.15C44.51,28.86,39.19,30.09,35.53,31.41"/>
						<path class="st9" d="M61.28,28.27l-11.4-6.2c0.97,0.25,1.86,0.58,2.69,0.99l11.4,6.2C63.14,28.85,62.25,28.52,61.28,28.27"/>
						<path class="st10" d="M63.97,29.26l-11.4-6.2c0.16,0.08,0.31,0.16,0.46,0.24l11.4,6.2C64.28,29.41,64.12,29.33,63.97,29.26"/>
					</g>
				</g>
				<g>
					<path class="st36" d="M72.93,87.19l0.18,0.33l-8.14,1.14c-0.92-1.58-2.06-5.85-3.88-14.39c-1.67-8.22-4.61-10.9-11.23-10.24
						l-6.73,0.95l-0.05,26.76l-7.83,1.1l0.11-61.38l0.18-0.06c3.65-1.32,8.97-2.55,14.23-3.29c7.94-1.12,13.09-0.27,16.69,2.75
						c2.94,2.4,4.56,6.39,4.55,11.26c-0.01,7.43-4.02,13.91-10.72,17.4c4.15,1.08,6.86,4.81,8.28,11.38
						C70.37,79.03,71.73,84.96,72.93,87.19z M65.22,88.14l7.15-1c-1.18-2.5-2.51-8.27-4.24-16.05c-1.41-6.53-4.11-10.17-8.24-11.13
						l-0.15-0.03l0-0.62l0.15-0.07c6.66-3.37,10.65-9.73,10.66-17.03c0.01-4.73-1.55-8.61-4.4-10.93c-3.52-2.95-8.58-3.76-16.4-2.67
						c-5.14,0.72-10.34,1.91-13.96,3.2l-0.11,60.5l6.94-0.97l0.05-26.76l7.19-1.01c6.8-0.67,9.96,2.19,11.66,10.56
						C63.29,82.39,64.4,86.62,65.22,88.14"/>
				</g>
				<g>
					<polygon class="st16" points="35.24,92.84 23.84,86.64 23.96,25.27 35.35,31.47 					"/>
				</g>
				<g>
					<polygon class="st41" points="35.35,31.47 23.96,25.27 24.13,25.21 35.53,31.41 					"/>
				</g>
			</g>
			<g class="st0">
				<g class="st0">
					<defs>
						<path id="SVGID_33_" class="st0" d="M156.32,86.84l11.4,6.2c5.26,2.86,7.51,6.97,7.5,13.14c-0.01,8.04-5.19,18.15-19.73,20.19
							l-11.4-6.2c14.54-2.04,19.72-12.15,19.73-20.19C163.83,93.81,161.58,89.7,156.32,86.84z"/>
					</defs>
					<clipPath id="SVGID_34_">
						<use xlink:href="#SVGID_33_"  style="overflow:visible;"/>
					</clipPath>
					<g class="st42">
						<path class="st21" d="M155.49,126.37l-11.4-6.2c3.11-0.44,5.8-1.24,8.09-2.32l11.4,6.2
							C161.28,125.12,158.6,125.93,155.49,126.37"/>
						<path class="st9" d="M163.58,124.05l-11.4-6.2c1.15-0.54,2.2-1.15,3.16-1.81l11.4,6.2
							C165.78,122.9,164.73,123.51,163.58,124.05"/>
						<path class="st10" d="M166.74,122.24l-11.4-6.2c0.74-0.51,1.42-1.05,2.05-1.61l11.4,6.2
							C168.16,121.19,167.48,121.73,166.74,122.24"/>
						<path class="st23" d="M168.79,120.62l-11.4-6.2c0.56-0.51,1.09-1.04,1.57-1.58l11.4,6.2
							C169.88,119.59,169.35,120.12,168.79,120.62"/>
						<path class="st24" d="M170.36,119.04l-11.4-6.2c0.48-0.54,0.92-1.11,1.33-1.68l11.4,6.2
							C171.28,117.93,170.84,118.5,170.36,119.04"/>
						<path class="st25" d="M171.68,117.36l-11.4-6.2c0.45-0.63,0.84-1.29,1.2-1.95l11.4,6.2
							C172.53,116.07,172.13,116.72,171.68,117.36"/>
						<path class="st26" d="M172.88,115.41l-11.4-6.2c0.44-0.83,0.82-1.67,1.13-2.52l11.4,6.2
							C173.7,113.74,173.33,114.58,172.88,115.41"/>
						<path class="st3" d="M174.01,112.89l-11.4-6.2c0.83-2.26,1.2-4.56,1.2-6.71c0.01-6.17-2.24-10.28-7.5-13.14l11.4,6.2
							c5.26,2.86,7.51,6.97,7.5,13.14C175.21,108.33,174.84,110.64,174.01,112.89"/>
					</g>
				</g>
				<g class="st0">
					<defs>
						<path id="SVGID_35_" class="st0" d="M156.36,97.7c-0.74-2.09-2.2-3.68-4.59-4.98l11.4,6.2c2.39,1.3,3.86,2.9,4.59,4.98
							c-1.9-1.03-3.8-2.07-5.7-3.1c-0.45-0.24-1.04-0.57-1.49-0.81c-0.44-0.24-1.03-0.56-1.46-0.8c-0.21-0.12-0.5-0.27-0.71-0.39
							c-0.21-0.11-0.49-0.27-0.7-0.38C157.29,98.2,156.65,98.04,156.36,97.7z"/>
					</defs>
					<clipPath id="SVGID_36_">
						<use xlink:href="#SVGID_35_"  style="overflow:visible;"/>
					</clipPath>
					<g class="st43">
						<path class="st5" d="M167.6,112.03l-11.4-6.2c0.48-1.31,0.73-2.73,0.73-4.24c0.01-4.15-1.48-6.87-5.18-8.88l11.4,6.2
							c3.7,2.01,5.19,4.73,5.18,8.88C168.33,109.3,168.08,110.72,167.6,112.03"/>
					</g>
				</g>
				<g class="st0">
					<defs>
						<path id="SVGID_37_" class="st0" d="M156.94,101.6c0-1.47-0.18-2.76-0.58-3.9c3.8,2.07,7.6,4.13,11.4,6.2
							c0.4,1.14,0.59,2.43,0.58,3.9c-0.01,6.61-4.85,11.57-12.32,12.62c-4.41,0.62-9.25-0.13-13.04-2.01l-11.4-6.2
							c3.79,1.88,8.63,2.63,13.04,2.01C152.09,113.17,156.93,108.21,156.94,101.6z"/>
					</defs>
					<clipPath id="SVGID_38_">
						<use xlink:href="#SVGID_37_"  style="overflow:visible;"/>
					</clipPath>
					<g class="st44">
						<path class="st14" d="M142.97,118.4l-11.4-6.2c0.01,0.01,0.03,0.01,0.04,0.02l11.4,6.2C143,118.42,142.98,118.41,142.97,118.4
							"/>
						<path class="st13" d="M143.01,118.43l-11.4-6.2c1.22,0.6,2.56,1.09,3.95,1.45l11.4,6.2
							C145.57,119.51,144.24,119.03,143.01,118.43"/>
						<path class="st12" d="M146.96,119.88l-11.4-6.2c2.91,0.75,6.08,0.96,9.05,0.54c1.85-0.26,3.53-0.76,5.03-1.46l11.4,6.2
							c-1.49,0.7-3.18,1.2-5.03,1.46C153.04,120.84,149.87,120.63,146.96,119.88"/>
						<path class="st13" d="M161.04,118.96l-11.4-6.2c0.73-0.34,1.41-0.73,2.04-1.17l11.4,6.2
							C162.44,118.22,161.76,118.62,161.04,118.96"/>
						<path class="st14" d="M163.07,117.79l-11.4-6.2c0.47-0.32,0.91-0.67,1.32-1.04l11.4,6.2
							C163.98,117.12,163.54,117.47,163.07,117.79"/>
						<path class="st28" d="M164.39,116.75l-11.4-6.2c0.35-0.32,0.68-0.65,0.99-1l11.4,6.2
							C165.07,116.1,164.74,116.43,164.39,116.75"/>
						<path class="st29" d="M165.38,115.75l-11.4-6.2c0.29-0.33,0.57-0.68,0.82-1.04l11.4,6.2
							C165.95,115.07,165.68,115.42,165.38,115.75"/>
						<path class="st30" d="M166.2,114.71l-11.4-6.2c0.26-0.38,0.51-0.77,0.72-1.17l11.4,6.2
							C166.71,113.94,166.47,114.33,166.2,114.71"/>
						<path class="st31" d="M166.93,113.54l-11.4-6.2c0.26-0.48,0.48-0.98,0.67-1.5l11.4,6.2
							C167.41,112.55,167.19,113.05,166.93,113.54"/>
						<path class="st5" d="M167.6,112.03l-11.4-6.2c0.48-1.31,0.73-2.73,0.73-4.24c0.01-4.15-1.48-6.87-5.18-8.88l11.4,6.2
							c3.7,2.01,5.19,4.73,5.18,8.88C168.33,109.3,168.08,110.72,167.6,112.03"/>
					</g>
				</g>
				<g class="st0">
					<defs>
						<path id="SVGID_39_" class="st0" d="M151.35,93.35l11.4,6.2c3.51,1.91,4.92,4.46,4.91,8.34c-0.01,6.28-4.47,10.8-11.65,11.81
							c-4.44,0.62-9.32-0.18-13.07-2.14l-11.4-6.2c3.74,1.96,8.63,2.76,13.07,2.14c7.18-1.01,11.64-5.53,11.65-11.81
							C156.27,97.82,154.87,95.27,151.35,93.35z"/>
					</defs>
					<clipPath id="SVGID_40_">
						<use xlink:href="#SVGID_39_"  style="overflow:visible;"/>
					</clipPath>
					<g class="st45">
						<path class="st10" d="M142.95,117.56l-11.4-6.2c0.13,0.07,0.27,0.14,0.4,0.2l11.4,6.2
							C143.21,117.7,143.08,117.63,142.95,117.56"/>
						<path class="st9" d="M143.35,117.77l-11.4-6.2c1.19,0.58,2.48,1.05,3.83,1.4l11.4,6.2
							C145.83,118.82,144.54,118.35,143.35,117.77"/>
						<path class="st21" d="M147.18,119.17l-11.4-6.2c2.84,0.74,5.93,0.94,8.83,0.53c1.82-0.26,3.47-0.74,4.91-1.42l11.4,6.2
							c-1.44,0.68-3.09,1.16-4.91,1.42C153.11,120.11,150.02,119.91,147.18,119.17"/>
						<path class="st9" d="M160.92,118.28l-11.4-6.2c0.68-0.32,1.31-0.68,1.9-1.09l11.4,6.2
							C162.24,117.6,161.6,117.96,160.92,118.28"/>
						<path class="st10" d="M162.82,117.19l-11.4-6.2c0.43-0.3,0.83-0.61,1.21-0.95l11.4,6.2
							C163.66,116.58,163.25,116.9,162.82,117.19"/>
						<path class="st23" d="M164.03,116.24l-11.4-6.2c0.32-0.29,0.62-0.59,0.91-0.91l11.4,6.2
							C164.66,115.65,164.35,115.95,164.03,116.24"/>
						<path class="st24" d="M164.94,115.33l-11.4-6.2c0.27-0.3,0.52-0.62,0.75-0.95l11.4,6.2
							C165.46,114.71,165.21,115.02,164.94,115.33"/>
						<path class="st25" d="M165.69,114.38l-11.4-6.2c0.24-0.34,0.46-0.7,0.66-1.07l11.4,6.2
							C166.15,113.67,165.93,114.03,165.69,114.38"/>
						<path class="st26" d="M166.35,113.3l-11.4-6.2c0.24-0.44,0.45-0.91,0.62-1.39l11.4,6.2
							C166.8,112.4,166.59,112.86,166.35,113.3"/>
						<path class="st3" d="M166.97,111.92l-11.4-6.2c0.45-1.24,0.69-2.59,0.69-4.03c0.01-3.87-1.4-6.43-4.91-8.34l11.4,6.2
							c3.51,1.91,4.92,4.46,4.91,8.34C167.66,109.33,167.42,110.68,166.97,111.92"/>
					</g>
				</g>
				<g class="st0">
					<defs>
						<path id="SVGID_41_" class="st0" d="M151.76,92.71l11.4,6.2c-1.54-0.84-3.45-1.55-5.81-2.2l-11.4-6.2
							C148.31,91.16,150.23,91.88,151.76,92.71z"/>
					</defs>
					<clipPath id="SVGID_42_">
						<use xlink:href="#SVGID_41_"  style="overflow:visible;"/>
					</clipPath>
					<g class="st46">
						<path class="st9" d="M157.35,96.72l-11.4-6.2c2.04,0.56,3.76,1.17,5.18,1.87l11.4,6.2C161.11,97.89,159.4,97.28,157.35,96.72"
							/>
						<path class="st10" d="M162.54,98.59l-11.4-6.2c0.21,0.11,0.42,0.21,0.62,0.32l11.4,6.2C162.96,98.8,162.75,98.7,162.54,98.59"
							/>
					</g>
				</g>
				<g class="st0">
					<defs>
						<path id="SVGID_43_" class="st0" d="M149.47,84.2c2.69,0.74,4.97,1.61,6.85,2.63l11.4,6.2c-1.89-1.03-4.16-1.89-6.85-2.63
							c-2.67-0.74-4.9-1.51-6.67-2.47l-11.4-6.2C144.57,82.69,146.8,83.46,149.47,84.2z"/>
					</defs>
					<clipPath id="SVGID_44_">
						<use xlink:href="#SVGID_43_"  style="overflow:visible;"/>
					</clipPath>
					<g class="st47">
						<path class="st14" d="M154.2,87.93l-11.4-6.2c0.2,0.11,0.41,0.22,0.63,0.32l11.4,6.2C154.61,88.15,154.4,88.04,154.2,87.93"/>
						<path class="st13" d="M154.83,88.25l-11.4-6.2c1.66,0.81,3.68,1.49,6.04,2.15c2.31,0.64,4.31,1.36,6.02,2.2l11.4,6.2
							c-1.71-0.84-3.71-1.57-6.02-2.2C158.5,89.75,156.48,89.07,154.83,88.25"/>
						<path class="st14" d="M166.88,92.6l-11.4-6.2c0.29,0.14,0.57,0.29,0.84,0.43l11.4,6.2C167.45,92.89,167.17,92.74,166.88,92.6"
							/>
					</g>
				</g>
				<g class="st0">
					<defs>
						<path id="SVGID_45_" class="st0" d="M156.72,86.19l11.4,6.2c-1.93-1.05-4.26-1.94-7.02-2.7l-11.4-6.2
							C152.46,84.25,154.79,85.14,156.72,86.19z"/>
					</defs>
					<clipPath id="SVGID_46_">
						<use xlink:href="#SVGID_45_"  style="overflow:visible;"/>
					</clipPath>
					<g class="st48">
						<path class="st9" d="M161.11,89.69l-11.4-6.2c2.36,0.65,4.4,1.39,6.15,2.25l11.4,6.2C165.51,91.09,163.46,90.34,161.11,89.69"
							/>
						<path class="st10" d="M167.26,91.95l-11.4-6.2c0.3,0.15,0.58,0.29,0.86,0.45l11.4,6.2C167.84,92.24,167.55,92.09,167.26,91.95
							"/>
					</g>
				</g>
				<g class="st0">
					<defs>
						<path id="SVGID_47_" class="st0" d="M141.28,124.63l-11.4-6.2c3.18,1.72,9.08,2.46,14.2,1.74l11.4,6.2
							C150.37,127.09,144.46,126.35,141.28,124.63z"/>
					</defs>
					<clipPath id="SVGID_48_">
						<use xlink:href="#SVGID_47_"  style="overflow:visible;"/>
					</clipPath>
					<g class="st49">
						<path class="st10" d="M141.28,124.63l-11.4-6.2c0.11,0.06,0.23,0.12,0.35,0.18l11.4,6.2
							C141.51,124.75,141.4,124.69,141.28,124.63"/>
						<path class="st9" d="M141.63,124.81l-11.4-6.2c0.81,0.4,1.76,0.73,2.82,1.01l11.4,6.2
							C143.4,125.55,142.44,125.21,141.63,124.81"/>
						<path class="st21" d="M144.46,125.82l-11.4-6.2c3.2,0.83,7.32,1.07,11.03,0.55l11.4,6.2
							C151.78,126.89,147.66,126.65,144.46,125.82"/>
					</g>
				</g>
				<g class="st0">
					<defs>
						<path id="SVGID_49_" class="st0" d="M140.93,125.29l-11.4-6.2c-0.08-0.04-0.15-0.08-0.23-0.13l11.4,6.2
							C140.78,125.21,140.86,125.25,140.93,125.29z"/>
					</defs>
					<clipPath id="SVGID_50_">
						<use xlink:href="#SVGID_49_"  style="overflow:visible;"/>
					</clipPath>
					<g class="st50">
						<path class="st3" d="M140.93,125.29l-11.4-6.2c-0.08-0.04-0.15-0.08-0.23-0.13l11.4,6.2
							C140.78,125.21,140.86,125.25,140.93,125.29"/>
					</g>
				</g>
				<g>
					<polygon class="st51" points="140.71,125.16 129.31,118.96 129.1,118.84 140.5,125.04 					"/>
				</g>
				<g>
					<polygon class="st52" points="173.5,63.24 162.11,57.04 162.35,57.15 173.74,63.35 					"/>
				</g>
				<g>
					<polygon class="st53" points="171.1,69.88 159.71,63.68 161.54,57.6 172.93,63.8 					"/>
				</g>
				<g>
					<polygon class="st54" points="141.28,124.63 129.89,118.43 131.57,112.21 142.97,118.4 					"/>
				</g>
				<g>
					<polygon class="st55" points="140.5,125.04 129.1,118.84 131.18,111.16 142.58,117.36 					"/>
				</g>
				<g>
					<polygon class="st56" points="142.58,117.36 131.18,111.16 131.55,111.36 142.95,117.56 					"/>
				</g>
				<g class="st0">
					<defs>
						<path id="SVGID_51_" class="st0" d="M154.48,87.23l-11.4-6.2c1.65,0.9,3.82,1.68,6.62,2.46l11.4,6.2
							C158.3,88.92,156.13,88.13,154.48,87.23z"/>
					</defs>
					<clipPath id="SVGID_52_">
						<use xlink:href="#SVGID_51_"  style="overflow:visible;"/>
					</clipPath>
					<g class="st57">
						<path class="st10" d="M154.48,87.23l-11.4-6.2c0.2,0.11,0.4,0.21,0.61,0.32l11.4,6.2C154.89,87.44,154.68,87.34,154.48,87.23"
							/>
						<path class="st9" d="M155.1,87.55l-11.4-6.2c1.56,0.77,3.54,1.46,6.01,2.14l11.4,6.2C158.64,89.01,156.66,88.32,155.1,87.55"
							/>
					</g>
				</g>
				<g class="st0">
					<defs>
						<path id="SVGID_53_" class="st0" d="M149.93,94.01l-11.4-6.2c2.04,1.11,4.51,2.01,7.43,2.71l11.4,6.2
							C154.43,96.01,151.97,95.11,149.93,94.01z"/>
					</defs>
					<clipPath id="SVGID_54_">
						<use xlink:href="#SVGID_53_"  style="overflow:visible;"/>
					</clipPath>
					<g class="st58">
						<path class="st10" d="M149.93,94.01l-11.4-6.2c0.26,0.14,0.52,0.27,0.79,0.41l11.4,6.2
							C150.45,94.28,150.18,94.15,149.93,94.01"/>
						<path class="st9" d="M150.72,94.41l-11.4-6.2c1.71,0.84,3.68,1.55,5.95,2.13l11.4,6.2C154.4,95.96,152.42,95.25,150.72,94.41"
							/>
						<path class="st21" d="M156.66,96.55l-11.4-6.2c0.23,0.06,0.46,0.12,0.69,0.17l11.4,6.2C157.12,96.66,156.89,96.6,156.66,96.55
							"/>
					</g>
				</g>
				<g class="st0">
					<defs>
						<path id="SVGID_55_" class="st0" d="M160.7,62.69l-11.4-6.2c6.35-0.89,10.32,0.26,12.23,1.12l11.4,6.2
							C171.02,62.95,167.05,61.79,160.7,62.69z"/>
					</defs>
					<clipPath id="SVGID_56_">
						<use xlink:href="#SVGID_55_"  style="overflow:visible;"/>
					</clipPath>
					<g class="st59">
						<path class="st12" d="M160.7,62.69l-11.4-6.2c4.45-0.63,7.73-0.25,9.96,0.33l11.4,6.2C168.43,62.44,165.15,62.06,160.7,62.69"
							/>
						<path class="st13" d="M170.66,63.02l-11.4-6.2c0.95,0.25,1.71,0.53,2.28,0.78l11.4,6.2
							C172.36,63.55,171.61,63.26,170.66,63.02"/>
					</g>
				</g>
				<g class="st0">
					<defs>
						<path id="SVGID_57_" class="st0" d="M138.53,87.81c-2.39-1.3-4.19-2.89-5.42-4.8c3.8,2.07,7.6,4.13,11.4,6.2
							c1.23,1.91,3.02,3.5,5.42,4.8C146.51,92.15,141.95,89.67,138.53,87.81z"/>
					</defs>
					<clipPath id="SVGID_58_">
						<use xlink:href="#SVGID_57_"  style="overflow:visible;"/>
					</clipPath>
					<g class="st60">
						<path class="st5" d="M149.93,94.01l-11.4-6.2c-5.05-2.75-7.44-6.78-7.43-12.36c0-2.16,0.38-4.23,1.09-6.15l11.4,6.2
							c-0.7,1.92-1.08,3.99-1.09,6.15C142.48,87.22,144.88,91.26,149.93,94.01"/>
					</g>
				</g>
				<g class="st0">
					<defs>
						<path id="SVGID_59_" class="st0" d="M154.2,87.93l-11.4-6.2c-3.21-1.75-4.9-4.14-4.9-8.15c0.01-4.78,3.45-10.1,11.13-11.18
							c4.69-0.66,8.34,0.29,10.67,1.27l11.4,6.2c-2.33-0.99-5.98-1.93-10.67-1.27c-7.67,1.08-11.12,6.39-11.13,11.18
							C149.3,83.79,150.98,86.18,154.2,87.93z"/>
					</defs>
					<clipPath id="SVGID_60_">
						<use xlink:href="#SVGID_59_"  style="overflow:visible;"/>
					</clipPath>
					<g class="st61">
						<path class="st3" d="M154.2,87.93l-11.4-6.2c-3.21-1.75-4.9-4.14-4.9-8.15c0-1.18,0.21-2.38,0.64-3.55l11.4,6.2
							c-0.43,1.17-0.64,2.38-0.64,3.55C149.3,83.79,150.98,86.18,154.2,87.93"/>
						<path class="st26" d="M149.94,76.23l-11.4-6.2c0.17-0.47,0.38-0.92,0.62-1.37l11.4,6.2C150.32,75.3,150.12,75.76,149.94,76.23
							"/>
						<path class="st25" d="M150.56,74.85l-11.4-6.2c0.2-0.37,0.42-0.73,0.67-1.08l11.4,6.2C150.98,74.12,150.76,74.48,150.56,74.85
							"/>
						<path class="st24" d="M151.23,73.77l-11.4-6.2c0.23-0.33,0.48-0.65,0.76-0.96l11.4,6.2
							C151.72,73.11,151.46,73.44,151.23,73.77"/>
						<path class="st23" d="M151.99,72.8l-11.4-6.2c0.28-0.32,0.58-0.62,0.91-0.92l11.4,6.2C152.58,72.18,152.27,72.49,151.99,72.8"
							/>
						<path class="st10" d="M152.9,71.88l-11.4-6.2c0.36-0.33,0.76-0.64,1.18-0.93l11.4,6.2C153.66,71.24,153.27,71.56,152.9,71.88"
							/>
						<path class="st9" d="M154.08,70.95l-11.4-6.2c0.56-0.39,1.17-0.74,1.83-1.05l11.4,6.2C155.25,70.21,154.64,70.57,154.08,70.95
							"/>
						<path class="st21" d="M155.92,69.9l-11.4-6.2c1.3-0.61,2.8-1.06,4.52-1.3c3.23-0.45,5.97-0.15,8.13,0.41l11.4,6.2
							c-2.15-0.56-4.89-0.87-8.13-0.41C158.72,68.84,157.22,69.29,155.92,69.9"/>
						<path class="st9" d="M168.56,69.01l-11.4-6.2c0.97,0.25,1.82,0.56,2.55,0.86l11.4,6.2C170.38,69.57,169.53,69.27,168.56,69.01
							"/>
					</g>
				</g>
				<g class="st0">
					<defs>
						<path id="SVGID_61_" class="st0" d="M131.1,75.45c0.02-9.66,7.5-17.46,18.21-18.96l11.4,6.2c-10.7,1.5-18.19,9.31-18.21,18.96
							c-0.01,2.93,0.66,5.44,2.02,7.56c-3.8-2.07-7.6-4.13-11.4-6.2C131.75,80.89,131.09,78.38,131.1,75.45z"/>
					</defs>
					<clipPath id="SVGID_62_">
						<use xlink:href="#SVGID_61_"  style="overflow:visible;"/>
					</clipPath>
					<g class="st62">
						<path class="st5" d="M149.93,94.01l-11.4-6.2c-5.05-2.75-7.44-6.78-7.43-12.36c0-2.16,0.38-4.23,1.09-6.15l11.4,6.2
							c-0.7,1.92-1.08,3.99-1.09,6.15C142.48,87.22,144.88,91.26,149.93,94.01"/>
						<path class="st31" d="M143.58,75.5l-11.4-6.2c0.29-0.8,0.64-1.57,1.04-2.32l11.4,6.2C144.22,73.93,143.87,74.7,143.58,75.5"/>
						<path class="st30" d="M144.62,73.18l-11.4-6.2c0.34-0.63,0.72-1.25,1.13-1.84l11.4,6.2
							C145.34,71.93,144.96,72.55,144.62,73.18"/>
						<path class="st29" d="M145.75,71.34l-11.4-6.2c0.4-0.57,0.83-1.12,1.3-1.65l11.4,6.2C146.59,70.22,146.15,70.77,145.75,71.34"
							/>
						<path class="st28" d="M147.05,69.69l-11.4-6.2c0.49-0.55,1.01-1.08,1.56-1.58l11.4,6.2
							C148.06,68.62,147.54,69.14,147.05,69.69"/>
						<path class="st14" d="M148.62,68.12l-11.4-6.2c0.64-0.58,1.32-1.11,2.04-1.61l11.4,6.2C149.94,67,149.26,67.54,148.62,68.12"
							/>
						<path class="st13" d="M150.66,66.5l-11.4-6.2c0.97-0.67,2-1.26,3.1-1.78l11.4,6.2C152.66,65.24,151.63,65.84,150.66,66.5"/>
						<path class="st12" d="M153.76,64.72l-11.4-6.2c2.1-0.99,4.43-1.68,6.93-2.04l11.4,6.2C158.19,63.04,155.86,63.74,153.76,64.72
							"/>
					</g>
				</g>
				<g>
					<path class="st39" d="M160.7,62.69c6.35-0.89,10.32,0.26,12.23,1.12l-1.83,6.07c-2.33-0.99-5.98-1.93-10.67-1.27
						c-7.67,1.08-11.12,6.39-11.13,11.18c-0.01,6.23,4.05,8.54,11.56,10.62c10.21,2.82,14.37,7.39,14.35,15.78
						c-0.01,8.04-5.19,18.15-19.73,20.19c-5.12,0.72-11.03-0.01-14.2-1.74l1.69-6.23c3.79,1.88,8.63,2.63,13.04,2.01
						c7.47-1.05,12.31-6.01,12.32-12.62c0.01-5.87-2.96-8.88-10.98-11.08c-10.15-2.45-14.87-7.24-14.86-15.07
						C142.51,71.99,150,64.19,160.7,62.69z"/>
				</g>
				<g class="st0">
					<defs>
						<path id="SVGID_63_" class="st0" d="M149.54,94.66l-11.4-6.2c-5.24-2.85-7.73-7.07-7.71-12.91
							c0.02-10.08,7.78-18.22,18.87-19.78c6.78-0.95,10.93,0.39,12.8,1.27l11.4,6.2c-1.87-0.88-6.03-2.22-12.8-1.27
							c-11.09,1.56-18.85,9.69-18.87,19.78C141.82,87.59,144.3,91.81,149.54,94.66z"/>
					</defs>
					<clipPath id="SVGID_64_">
						<use xlink:href="#SVGID_63_"  style="overflow:visible;"/>
					</clipPath>
					<g class="st63">
						<path class="st3" d="M149.54,94.66l-11.4-6.2c-5.24-2.85-7.73-7.07-7.71-12.91c0-2.27,0.4-4.44,1.14-6.46l11.4,6.2
							c-0.74,2.02-1.13,4.19-1.14,6.46C141.82,87.59,144.3,91.81,149.54,94.66"/>
						<path class="st26" d="M142.97,75.29l-11.4-6.2c0.31-0.84,0.67-1.64,1.09-2.42l11.4,6.2
							C143.64,73.64,143.27,74.45,142.97,75.29"/>
						<path class="st25" d="M144.05,72.86l-11.4-6.2c0.36-0.66,0.75-1.3,1.19-1.92l11.4,6.2C144.81,71.56,144.41,72.2,144.05,72.86"
							/>
						<path class="st24" d="M145.24,70.94l-11.4-6.2c0.42-0.6,0.87-1.17,1.35-1.72l11.4,6.2C146.11,69.77,145.66,70.34,145.24,70.94
							"/>
						<path class="st23" d="M146.59,69.22l-11.4-6.2c0.51-0.57,1.05-1.12,1.63-1.64l11.4,6.2C147.64,68.1,147.1,68.65,146.59,69.22"
							/>
						<path class="st10" d="M148.22,67.58l-11.4-6.2c0.66-0.6,1.37-1.15,2.12-1.67l11.4,6.2C149.59,66.43,148.88,66.99,148.22,67.58
							"/>
						<path class="st9" d="M150.34,65.91l-11.4-6.2c1-0.69,2.08-1.31,3.22-1.85l11.4,6.2C152.41,64.6,151.34,65.22,150.34,65.91"/>
						<path class="st21" d="M153.55,64.07l-11.4-6.2c2.17-1.02,4.57-1.74,7.15-2.1c4.55-0.64,7.91-0.24,10.2,0.35l11.4,6.2
							c-2.29-0.59-5.65-0.99-10.2-0.35C158.12,62.33,155.72,63.05,153.55,64.07"/>
						<path class="st9" d="M170.9,62.32l-11.4-6.2c1.12,0.29,1.99,0.63,2.6,0.92l11.4,6.2C172.89,62.95,172.02,62.61,170.9,62.32"/>
					</g>
				</g>
				<g>
					<path class="st36" d="M161.11,89.69c10.52,2.9,14.8,7.65,14.78,16.39c-0.02,8.37-5.37,18.89-20.4,21
						c-5.34,0.75-11.56-0.05-14.78-1.92l-0.21-0.12l2.08-7.68l0.37,0.2c3.74,1.96,8.63,2.76,13.07,2.14
						c7.18-1.01,11.64-5.53,11.65-11.81c0.01-5.51-2.84-8.35-10.54-10.46c-10.45-2.53-15.31-7.51-15.29-15.68
						c0.02-10.08,7.78-18.22,18.87-19.78c6.78-0.95,10.93,0.39,12.8,1.27l0.24,0.11l-2.26,7.51l-0.34-0.16
						c-2.24-1-5.91-2.06-10.7-1.38c-7.22,1.01-10.45,5.94-10.46,10.36C149.96,84.91,152.66,87.35,161.11,89.69z M155.49,126.37
						c14.54-2.04,19.72-12.15,19.73-20.19c0.02-8.39-4.14-12.96-14.35-15.78c-7.51-2.08-11.57-4.4-11.56-10.62
						c0.01-4.78,3.45-10.1,11.13-11.18c4.69-0.66,8.34,0.29,10.67,1.27l1.83-6.07c-1.91-0.85-5.88-2.01-12.23-1.12
						c-10.7,1.5-18.19,9.31-18.21,18.96c-0.01,7.82,4.71,12.61,14.86,15.07c8.02,2.2,10.99,5.21,10.98,11.08
						c-0.01,6.61-4.85,11.57-12.32,12.62c-4.41,0.62-9.25-0.14-13.04-2.01l-1.69,6.23C144.46,126.35,150.37,127.09,155.49,126.37"/>
				</g>
			</g>
			<g class="st0">
				<g>
					<polygon class="st51" points="137.11,98.98 125.71,92.78 124.31,87.12 135.7,93.32 					"/>
				</g>
				<g>
					<polygon class="st64" points="135.76,92.76 124.37,86.56 124.61,86.4 136,92.6 					"/>
				</g>
				<g class="st0">
					<defs>
						<path id="SVGID_65_" class="st0" d="M122.25,103.88l-11.4-6.2c6.95-0.98,12.19-3.15,14.86-4.91l11.4,6.2
							C134.45,100.73,129.21,102.9,122.25,103.88z"/>
					</defs>
					<clipPath id="SVGID_66_">
						<use xlink:href="#SVGID_65_"  style="overflow:visible;"/>
					</clipPath>
					<g class="st65">
						<path class="st21" d="M122.25,103.88l-11.4-6.2c5.13-0.72,9.33-2.09,12.25-3.47l11.4,6.2
							C131.59,101.79,127.39,103.16,122.25,103.88"/>
						<path class="st9" d="M134.5,100.41l-11.4-6.2c1.04-0.49,1.91-0.98,2.61-1.44l11.4,6.2C136.41,99.44,135.54,99.93,134.5,100.41
							"/>
					</g>
				</g>
				<g class="st0">
					<defs>
						<path id="SVGID_67_" class="st0" d="M117.56,90.11c2.54-0.77,4.91-1.81,6.74-2.99l11.4,6.2c-1.83,1.18-4.2,2.22-6.74,2.99
							C125.16,94.24,121.36,92.18,117.56,90.11z"/>
					</defs>
					<clipPath id="SVGID_68_">
						<use xlink:href="#SVGID_67_"  style="overflow:visible;"/>
					</clipPath>
					<g class="st66">
						<path class="st12" d="M114.9,97.11l-11.4-6.2c2.64,0.68,5.62,0.81,8.9,0.35c3.27-0.46,6.65-1.46,9.42-2.77l11.4,6.2
							c-2.77,1.31-6.15,2.31-9.42,2.77C120.52,97.92,117.53,97.79,114.9,97.11"/>
						<path class="st13" d="M133.21,94.69l-11.4-6.2c0.9-0.43,1.74-0.88,2.49-1.37l11.4,6.2C134.96,93.8,134.12,94.26,133.21,94.69"
							/>
					</g>
				</g>
				<g class="st0">
					<defs>
						<path id="SVGID_69_" class="st0" d="M112.4,91.26c1.73-0.24,3.48-0.64,5.16-1.15c3.8,2.07,7.6,4.13,11.4,6.2
							c-1.68,0.51-3.44,0.91-5.16,1.15c-4.98,0.7-9.27,0.03-12.72-1.84l-11.4-6.2C103.13,91.29,107.42,91.96,112.4,91.26z"/>
					</defs>
					<clipPath id="SVGID_70_">
						<use xlink:href="#SVGID_69_"  style="overflow:visible;"/>
					</clipPath>
					<g class="st67">
						<path class="st14" d="M111.08,95.62l-11.4-6.2c0.19,0.1,0.39,0.21,0.59,0.3l11.4,6.2C111.47,95.82,111.27,95.72,111.08,95.62"
							/>
						<path class="st13" d="M111.67,95.92l-11.4-6.2c1.01,0.5,2.09,0.89,3.23,1.19l11.4,6.2C113.75,96.81,112.68,96.42,111.67,95.92
							"/>
						<path class="st12" d="M114.9,97.11l-11.4-6.2c2.64,0.68,5.62,0.81,8.9,0.35c3.27-0.46,6.65-1.46,9.42-2.77l11.4,6.2
							c-2.77,1.31-6.15,2.31-9.42,2.77C120.52,97.92,117.53,97.79,114.9,97.11"/>
					</g>
				</g>
				<g class="st0">
					<defs>
						<path id="SVGID_71_" class="st0" d="M111.18,95.21l-11.4-6.2c3.38,1.84,7.63,2.47,12.62,1.77c4.38-0.62,8.97-2.24,11.96-4.22
							l11.4,6.2c-2.99,1.98-7.58,3.61-11.96,4.22C118.81,97.68,114.56,97.05,111.18,95.21z"/>
					</defs>
					<clipPath id="SVGID_72_">
						<use xlink:href="#SVGID_71_"  style="overflow:visible;"/>
					</clipPath>
					<g class="st68">
						<path class="st10" d="M111.18,95.21l-11.4-6.2c0.18,0.1,0.37,0.2,0.56,0.29l11.4,6.2C111.55,95.41,111.36,95.31,111.18,95.21"
							/>
						<path class="st9" d="M111.74,95.5l-11.4-6.2c0.97,0.48,2.01,0.86,3.12,1.15l11.4,6.2C113.75,96.36,112.71,95.98,111.74,95.5"
							/>
						<path class="st21" d="M114.86,96.65l-11.4-6.2c2.63,0.68,5.62,0.8,8.94,0.34c3.23-0.45,6.56-1.45,9.29-2.74l11.4,6.2
							c-2.73,1.29-6.07,2.29-9.29,2.74C120.48,97.45,117.48,97.33,114.86,96.65"/>
						<path class="st9" d="M133.09,94.24l-11.4-6.2c0.98-0.46,1.88-0.96,2.67-1.48l11.4,6.2C134.97,93.28,134.07,93.78,133.09,94.24
							"/>
					</g>
				</g>
				<g class="st0">
					<defs>
						<path id="SVGID_73_" class="st0" d="M106.22,101.51l-11.4-6.2c4.37,2.38,9.8,3.25,16.04,2.37l11.4,6.2
							C116.02,104.76,110.59,103.89,106.22,101.51z"/>
					</defs>
					<clipPath id="SVGID_74_">
						<use xlink:href="#SVGID_73_"  style="overflow:visible;"/>
					</clipPath>
					<g class="st69">
						<path class="st10" d="M106.22,101.51l-11.4-6.2c0.25,0.13,0.5,0.26,0.75,0.39l11.4,6.2
							C106.71,101.78,106.46,101.65,106.22,101.51"/>
						<path class="st9" d="M106.97,101.9l-11.4-6.2c1.3,0.64,2.68,1.15,4.15,1.53l11.4,6.2
							C109.65,103.05,108.26,102.54,106.97,101.9"/>
						<path class="st21" d="M111.11,103.43l-11.4-6.2c3.32,0.86,7.06,1.03,11.14,0.46l11.4,6.2
							C118.17,104.46,114.43,104.28,111.11,103.43"/>
					</g>
				</g>
				<g>
					<polygon class="st9" points="137.67,40.83 126.27,34.63 126.43,34.69 137.83,40.89 					"/>
				</g>
				<g>
					<polygon class="st55" points="135.63,47.5 124.23,41.3 125.9,35.02 137.3,41.22 					"/>
				</g>
				<g class="st0">
					<defs>
						<path id="SVGID_75_" class="st0" d="M94.82,95.31c-1.6-0.87-3.05-1.94-4.36-3.2c3.8,2.07,7.6,4.13,11.4,6.2
							c1.3,1.26,2.76,2.33,4.36,3.2C102.8,99.65,98.24,97.17,94.82,95.31z"/>
					</defs>
					<clipPath id="SVGID_76_">
						<use xlink:href="#SVGID_75_"  style="overflow:visible;"/>
					</clipPath>
					<g class="st70">
						<path class="st5" d="M106.22,101.51l-11.4-6.2c-7.57-4.12-11.97-12.75-11.95-24.69c0.01-5.13,0.86-9.93,2.45-14.26l11.4,6.2
							c-1.59,4.33-2.44,9.13-2.45,14.26C94.25,88.76,98.65,97.4,106.22,101.51"/>
					</g>
				</g>
				<g class="st0">
					<defs>
						<path id="SVGID_77_" class="st0" d="M123.99,40.45l-11.4-6.2c7.67-1.08,11.96,0.23,13.31,0.77l11.4,6.2
							C135.95,40.68,131.66,39.37,123.99,40.45z"/>
					</defs>
					<clipPath id="SVGID_78_">
						<use xlink:href="#SVGID_77_"  style="overflow:visible;"/>
					</clipPath>
					<g class="st71">
						<path class="st12" d="M123.99,40.45l-11.4-6.2c5.82-0.82,9.69-0.26,11.81,0.29l11.4,6.2
							C133.68,40.19,129.81,39.64,123.99,40.45"/>
						<path class="st13" d="M135.8,40.74l-11.4-6.2c0.68,0.18,1.17,0.35,1.5,0.48l11.4,6.2C136.97,41.09,136.48,40.91,135.8,40.74"
							/>
					</g>
				</g>
				<g class="st0">
					<defs>
						<path id="SVGID_79_" class="st0" d="M111.08,95.62l-11.4-6.2c-6.03-3.28-9.47-10.27-9.45-20.11
							c0.03-15.86,8.69-26.93,22.6-28.88c4.21-0.59,8.25-0.28,11.4,0.87l11.4,6.2c-3.15-1.15-7.19-1.46-11.4-0.87
							c-13.91,1.95-22.57,13.03-22.6,28.88C101.61,85.35,105.05,92.34,111.08,95.62z"/>
					</defs>
					<clipPath id="SVGID_80_">
						<use xlink:href="#SVGID_79_"  style="overflow:visible;"/>
					</clipPath>
					<g class="st72">
						<path class="st3" d="M111.08,95.62l-11.4-6.2c-6.03-3.28-9.47-10.27-9.45-20.11c0.01-4.52,0.72-8.65,2.05-12.29l11.4,6.2
							c-1.33,3.64-2.04,7.77-2.05,12.29C101.61,85.35,105.05,92.34,111.08,95.62"/>
						<path class="st26" d="M103.68,63.21l-11.4-6.2c0.47-1.29,1.02-2.51,1.64-3.67l11.4,6.2C104.7,60.7,104.15,61.93,103.68,63.21"
							/>
						<path class="st25" d="M105.32,59.54l-11.4-6.2c0.49-0.92,1.03-1.8,1.62-2.63l11.4,6.2C106.36,57.75,105.82,58.62,105.32,59.54
							"/>
						<path class="st24" d="M106.94,56.91l-11.4-6.2c0.53-0.76,1.11-1.49,1.71-2.18l11.4,6.2
							C108.05,55.42,107.48,56.15,106.94,56.91"/>
						<path class="st23" d="M108.66,54.73l-11.4-6.2c0.61-0.69,1.26-1.34,1.94-1.96l11.4,6.2
							C109.91,53.39,109.27,54.04,108.66,54.73"/>
						<path class="st10" d="M110.6,52.78l-11.4-6.2c0.75-0.68,1.55-1.3,2.38-1.88l11.4,6.2C112.14,51.47,111.35,52.1,110.6,52.78"/>
						<path class="st9" d="M112.98,50.9l-11.4-6.2c1.08-0.75,2.24-1.41,3.45-1.99l11.4,6.2C115.21,49.48,114.06,50.15,112.98,50.9"
							/>
						<path class="st21" d="M116.43,48.91l-11.4-6.2c2.36-1.11,4.97-1.89,7.8-2.28c3.56-0.5,6.98-0.35,9.86,0.39l11.4,6.2
							c-2.88-0.75-6.31-0.89-9.86-0.39C121.4,47.02,118.79,47.8,116.43,48.91"/>
						<path class="st9" d="M134.09,47.02l-11.4-6.2c0.53,0.14,1.05,0.3,1.54,0.48l11.4,6.2C135.14,47.32,134.62,47.16,134.09,47.02"
							/>
					</g>
				</g>
				<g class="st0">
					<defs>
						<path id="SVGID_81_" class="st0" d="M82.87,70.62c0.04-19.25,11.98-33.87,29.72-36.37l11.4,6.2
							c-17.74,2.49-29.69,17.11-29.72,36.37c-0.02,9.42,2.72,16.78,7.59,21.49c-3.8-2.07-7.6-4.13-11.4-6.2
							C85.59,87.4,82.85,80.04,82.87,70.62z"/>
					</defs>
					<clipPath id="SVGID_82_">
						<use xlink:href="#SVGID_81_"  style="overflow:visible;"/>
					</clipPath>
					<g class="st73">
						<path class="st5" d="M106.22,101.51l-11.4-6.2c-7.57-4.12-11.97-12.75-11.95-24.69c0.01-5.13,0.86-9.93,2.45-14.26l11.4,6.2
							c-1.59,4.33-2.44,9.13-2.45,14.26C94.25,88.76,98.65,97.4,106.22,101.51"/>
						<path class="st31" d="M96.72,62.56l-11.4-6.2c0.6-1.64,1.31-3.22,2.11-4.72l11.4,6.2C98.03,59.34,97.32,60.91,96.72,62.56"/>
						<path class="st30" d="M98.83,57.84l-11.4-6.2c0.66-1.22,1.38-2.39,2.16-3.51l11.4,6.2C100.21,55.44,99.49,56.61,98.83,57.84"
							/>
						<path class="st29" d="M100.99,54.32l-11.4-6.2c0.72-1.03,1.5-2.01,2.32-2.94l11.4,6.2C102.49,52.31,101.72,53.3,100.99,54.32"
							/>
						<path class="st28" d="M103.31,51.38l-11.4-6.2c0.83-0.94,1.72-1.84,2.65-2.67l11.4,6.2
							C105.03,49.54,104.15,50.44,103.31,51.38"/>
						<path class="st14" d="M105.96,48.71l-11.4-6.2c1.04-0.93,2.13-1.8,3.28-2.59l11.4,6.2C108.09,46.91,107,47.77,105.96,48.71"/>
						<path class="st13" d="M109.24,46.11l-11.4-6.2c1.47-1.02,3.03-1.92,4.68-2.69l11.4,6.2C112.27,44.2,110.71,45.1,109.24,46.11"
							/>
						<path class="st12" d="M113.92,43.42l-11.4-6.2c3.08-1.45,6.46-2.46,10.07-2.97l11.4,6.2C120.38,40.96,117,41.97,113.92,43.42"
							/>
					</g>
				</g>
				<g class="st0">
					<defs>
						<path id="SVGID_83_" class="st0" d="M105.95,101.96l-11.4-6.2c-7.68-4.18-12.16-12.95-12.13-25.08
							c0.02-9.54,2.92-18.12,8.4-24.81c5.47-6.68,12.99-10.86,21.77-12.09c8.12-1.14,12.52,0.37,13.68,0.85l11.4,6.2
							c-1.15-0.49-5.55-1.99-13.68-0.85c-8.78,1.23-16.31,5.41-21.77,12.09c-5.47,6.69-8.38,15.28-8.4,24.81
							C93.8,89.01,98.27,97.78,105.95,101.96z"/>
					</defs>
					<clipPath id="SVGID_84_">
						<use xlink:href="#SVGID_83_"  style="overflow:visible;"/>
					</clipPath>
					<g class="st74">
						<path class="st3" d="M105.95,101.96l-11.4-6.2c-7.68-4.18-12.16-12.95-12.13-25.08c0.01-5.12,0.85-9.97,2.48-14.4l11.4,6.2
							c-1.63,4.43-2.47,9.27-2.48,14.4C93.8,89.01,98.27,97.78,105.95,101.96"/>
						<path class="st26" d="M96.3,62.49l-11.4-6.2c0.6-1.65,1.32-3.23,2.14-4.75l11.4,6.2C97.62,59.25,96.9,60.84,96.3,62.49"/>
						<path class="st25" d="M98.43,57.73l-11.4-6.2c0.67-1.24,1.4-2.44,2.21-3.59l11.4,6.2C99.84,55.3,99.1,56.49,98.43,57.73"/>
						<path class="st24" d="M100.64,54.15l-11.4-6.2c0.5-0.71,1.02-1.4,1.57-2.08c0.28-0.34,0.56-0.67,0.85-1l11.4,6.2
							c-0.29,0.33-0.57,0.66-0.85,1C101.67,52.74,101.14,53.44,100.64,54.15"/>
						<path class="st23" d="M103.07,51.07l-11.4-6.2c0.86-0.98,1.78-1.9,2.73-2.76l11.4,6.2C104.84,49.17,103.93,50.09,103.07,51.07
							"/>
						<path class="st10" d="M105.8,48.31l-11.4-6.2c1.05-0.95,2.16-1.82,3.32-2.62l11.4,6.2C107.96,46.49,106.85,47.36,105.8,48.31"
							/>
						<path class="st9" d="M109.12,45.69l-11.4-6.2c1.49-1.03,3.07-1.94,4.71-2.71l11.4,6.2C112.18,43.75,110.61,44.65,109.12,45.69
							"/>
						<path class="st21" d="M113.83,42.97l-11.4-6.2c3.14-1.48,6.54-2.49,10.16-2.99c5.9-0.83,9.83-0.26,11.99,0.3l11.4,6.2
							c-2.16-0.56-6.09-1.13-11.99-0.3C120.37,40.49,116.97,41.49,113.83,42.97"/>
						<path class="st9" d="M135.98,40.28l-11.4-6.2c0.81,0.21,1.37,0.42,1.69,0.55l11.4,6.2C137.35,40.7,136.79,40.49,135.98,40.28"
							/>
					</g>
				</g>
				<g>
					<path class="st39" d="M123.99,40.45c7.67-1.08,11.96,0.23,13.31,0.77l-1.67,6.28c-3.15-1.15-7.19-1.46-11.4-0.87
						c-13.91,1.95-22.57,13.03-22.6,28.88c-0.03,15.47,8.47,23.88,22.17,21.95c4.33-0.61,8.86-2.18,11.91-4.14l1.41,5.65
						c-2.66,1.76-7.9,3.93-14.86,4.91c-17.04,2.39-28.02-8.22-27.99-27.06C94.3,57.56,106.25,42.95,123.99,40.45z"/>
				</g>
				<g>
					<path class="st36" d="M135.76,92.76L136,92.6l1.63,6.56l-0.16,0.11c-2.65,1.8-8.04,4.09-15.22,5.09
						c-17.31,2.43-28.47-8.35-28.43-27.48c0.02-9.54,2.92-18.12,8.4-24.81c5.47-6.68,12.99-10.86,21.77-12.09
						c8.12-1.14,12.52,0.37,13.68,0.85l0.16,0.06l-1.92,7.24l-0.23-0.09c-3.13-1.2-7.2-1.53-11.45-0.93
						c-13.63,1.92-22.12,12.77-22.15,28.33c-0.03,15.41,8.09,23.45,21.72,21.54C128.18,96.37,132.77,94.75,135.76,92.76z
						 M122.25,103.88c6.95-0.98,12.19-3.15,14.86-4.91l-1.41-5.65c-3.05,1.96-7.57,3.53-11.91,4.14
						c-13.7,1.93-22.2-6.48-22.17-21.95c0.03-15.86,8.69-26.93,22.6-28.88c4.21-0.59,8.25-0.28,11.4,0.87l1.67-6.28
						c-1.34-0.54-5.63-1.84-13.31-0.77c-17.74,2.49-29.69,17.11-29.72,36.37C94.23,95.66,105.22,106.28,122.25,103.88"/>
				</g>
			</g>
		</g>
	</g>
	<g>
		<g>
			<g>
				<g>
					<circle cx="65.87" cy="174.45" r="12.5"/>
					<path d="M65.87,162.45c6.62,0,12,5.38,12,12s-5.38,12-12,12s-12-5.38-12-12S59.26,162.45,65.87,162.45 M65.87,161.45
						c-7.18,0-13,5.82-13,13c0,7.18,5.82,13,13,13s13-5.82,13-13C78.87,167.27,73.05,161.45,65.87,161.45L65.87,161.45z"/>
				</g>
				<g>
					<circle class="st75" cx="65.87" cy="174.45" r="8"/>
				</g>
			</g>
			<g>
				<g>
					<circle cx="131.87" cy="174.45" r="12.5"/>
					<path d="M131.87,162.45c6.62,0,12,5.38,12,12s-5.38,12-12,12s-12-5.38-12-12S125.26,162.45,131.87,162.45 M131.87,161.45
						c-7.18,0-13,5.82-13,13c0,7.18,5.82,13,13,13s13-5.82,13-13C144.87,167.27,139.05,161.45,131.87,161.45L131.87,161.45z"/>
				</g>
				<g>
					<circle class="st75" cx="131.87" cy="174.45" r="8"/>
				</g>
			</g>
			<path class="st76" d="M121.37,152.95l-11-19h-0.02H59.37l-11,14.03v23.97h3.55c0.53-6.99,6.57-12.5,13.95-12.5
				s13.42,5.51,13.95,12.5h37.78c0.27-7.23,6.41-13.01,13.97-13.01c7.56,0,13.7,5.78,13.97,13.01h6.82v-19H121.37z"/>
			<rect x="99.37" y="149.95" class="st76" width="16" height="22"/>
			<rect x="81.37" y="149.95" class="st76" width="16" height="22"/>
			<circle class="st77" cx="102.37" cy="160.95" r="1"/>
			<circle class="st77" cx="84.37" cy="160.95" r="1"/>
			<path class="st78" d="M99.37,137.95c4,0,8,0,12,0c1.33,0,3,3,3,3c1,1,1,1.37,1,3c0,2.04,0,2.96,0,5c-5.33,0-10.67,0-16,0V137.95z
				"/>
			<rect x="81.37" y="137.95" class="st78" width="16" height="11"/>
			<rect x="60.37" y="137.95" class="st78" width="16" height="11"/>
		</g>
		<rect x="46.46" y="165.25" class="st79" width="1" height="7"/>
		<rect x="152.96" y="152.75" class="st80" width="2" height="8"/>
		<rect x="152.96" y="163.75" class="st81" width="2" height="8"/>
		<rect x="63.96" y="130.75" width="2" height="3"/>
		<rect x="80.96" y="130.75" width="2" height="3"/>
		<rect x="103.96" y="130.75" width="2" height="3"/>
		<rect x="61" y="128.75" width="47" height="2"/>
	</g>
</g>
<g id="Layer_2">
</g>
</svg>
